<svg width="46" height="46" viewBox="0 0 46 46" fill="none" xmlns="http://www.w3.org/2000/svg">
<rect x="0.5" y="0.5" width="45" height="45" rx="22.5" fill="white" stroke="#BEBEBE"/>
<path d="M16.6748 27.69C16.332 28.0328 16.3157 28.6449 16.6829 29.004C17.042 29.3631 17.6541 29.3549 17.9969 29.0121L22.9916 24.0093L27.9945 29.0121C28.3454 29.3631 28.9493 29.3631 29.3084 29.004C29.6594 28.6367 29.6675 28.0409 29.3084 27.69L24.3137 22.6872L29.3084 17.6925C29.6675 17.3415 29.6675 16.7376 29.3084 16.3785C28.9412 16.0276 28.3454 16.0194 27.9945 16.3703L22.9916 21.3732L17.9969 16.3703C17.6541 16.0276 17.0339 16.0112 16.6829 16.3785C16.3239 16.7376 16.332 17.3497 16.6748 17.6925L21.6776 22.6872L16.6748 27.69Z" fill="#606060"/>
</svg>
