<svg width="26" height="26" viewBox="0 0 26 26" fill="none" xmlns="http://www.w3.org/2000/svg">
<path d="M8.84612 21.8278C9.18073 21.8278 9.44189 21.6646 9.8418 21.2891L12.8451 18.5796H18.1989C20.6555 18.5878 22.0347 17.1759 22.0347 14.752V8.41882C22.0347 5.99493 20.6555 4.59119 18.1989 4.59119H7.79332C5.33677 4.59119 3.95752 5.99493 3.95752 8.41882V14.752C3.95752 17.1759 5.36942 18.5796 7.73619 18.5796H8.06264V20.9464C8.06264 21.4769 8.35644 21.8278 8.84612 21.8278ZM8.6829 9.35737C8.38909 9.35737 8.16057 9.11253 8.16057 8.81873C8.16057 8.53308 8.38909 8.2964 8.6829 8.2964H17.2277C17.5216 8.2964 17.7582 8.53308 17.7582 8.81873C17.7582 9.11253 17.5216 9.35737 17.2277 9.35737H8.6829ZM8.6829 12.0506C8.38909 12.0506 8.16057 11.8139 8.16057 11.5201C8.16057 11.2345 8.38909 10.9896 8.6829 10.9896H17.2277C17.5216 10.9896 17.7582 11.2345 17.7582 11.5201C17.7582 11.8139 17.5216 12.0506 17.2277 12.0506H8.6829ZM8.6829 14.752C8.38909 14.752 8.16057 14.5153 8.16057 14.2296C8.16057 13.9277 8.38909 13.691 8.6829 13.691H14.2489C14.5427 13.691 14.7794 13.9277 14.7794 14.2296C14.7794 14.5153 14.5427 14.752 14.2489 14.752H8.6829Z" fill="#606060"/>
</svg>
