<?xml version="1.0" encoding="UTF-8"?>
<svg id="Layer_1" data-name="Layer 1" xmlns="http://www.w3.org/2000/svg" version="1.1" viewBox="0 0 1000 1000">
  <defs>
    <style>
      .cls-1 {
        fill: #fec200;
        stroke-width: 0px;
      }
    </style>
  </defs>
  <path class="cls-1" d="M635.6,770.4c-32.1,0-71.2-34.3-94.9-55-5.9-5.1-10.9-9.6-13.7-11.5-.9-.7-7.2-4.4-36.2-11.2-19.3-4.5-40.6-7.1-65-7.8-65.1-2-126.4-28.5-172.5-74.6-49.5-49.5-76.1-115.4-74.7-185.4,1.4-70,30.5-134.8,82-182.5,97.8-90.5,250.6-89.9,347.7,1.4h0c50.2,47.2,78.8,111.1,80.5,179.8.5,22.2,3.2,43.6,7.9,63.7,6.7,28.7,10.4,34.8,11.1,35.8,2,2.8,6.4,7.8,11.5,13.7,27.4,31.4,78.5,89.7,42.8,122.9-32.5,30.3-48.6,48.5-48.7,48.7l-1.1,1.1c-.2.2-18.4,16.2-48.7,48.7-8.1,8.7-17.7,12.2-28,12.2ZM433.7,198.4c-56.5,0-112.9,20.4-157,61.2-46.8,43.3-73.2,102.1-74.5,165.6-1.2,63.6,22.8,123.3,67.8,168.3,41.8,41.8,97.4,65.9,156.5,67.7,26,.8,48.7,3.6,69.6,8.4,31,7.3,40,11.8,44.5,14.9,3.8,2.7,9,7.3,15.6,13,21.7,19,72.5,63.4,90.2,44.4,28.5-30.6,46.4-46.8,49.8-49.8,3.1-3.4,19.3-21.3,49.8-49.8,18.9-17.7-25.5-68.5-44.5-90.2-5.8-6.6-10.4-11.8-13-15.6-3.1-4.4-7.6-13.3-14.8-44-5.1-21.6-7.9-44.7-8.5-68.5-1.5-62.4-27.4-120.3-73-163.2-44.3-41.7-101.4-62.5-158.5-62.5Z"/>
  <g>
    <path class="cls-1" d="M817.7,693.2l-28.9,28.9-88.6,88.6-7-7,88.6-88.7,9.2-9.2,17.4-17.4c3.8-3.8,3.8-10,0-13.8l-14.3-14.3c-3.8-3.8-10-3.8-13.8,0l-26.6,26.6-88.7,88.6-27-27-9.2,9.2,29.3,29.3c3.8,3.8,10,3.8,13.8,0l91-90.9,24.3-24.3,9.7,9.7-24.3,24.3-90.9,91c-3.8,3.8-3.8,10,0,13.8l11.6,11.6c1.8,1.8,4.3,2.8,6.9,2.8s5-1,6.9-2.9l22.9-22.9,15.3-15.3,36.8-36.8,15.3-15.3,20.4-20.4c5.1-5.1,5.1-13.3,0-18.4Z"/>
    <path class="cls-1" d="M747.6,799.7h0c5.1,5.1,13.3,5.1,18.4,0l5.9-5.9,30.2-30.2c5.1-5.1,5.1-13.3,0-18.4l-54.4,54.4Z"/>
  </g>
  <polygon class="cls-1" points="620.3 636 594.3 610 534.2 623.1 529.2 600.1 601.9 584.3 637 619.3 620.3 636"/>
  <rect class="cls-1" x="527.6" y="446.1" width="23.6" height="347.6" transform="translate(-280.4 563) rotate(-45)"/>
  <polygon class="cls-1" points="548.1 619 525 614 538.1 553.8 482.1 497.8 498.8 481.1 563.9 546.2 548.1 619"/>
  <path class="cls-1" d="M558.8,497.8l-16.7-16.7c12-12,12-31.4,0-43.4-12-12-31.4-12-43.4,0-12,12-12,31.4,0,43.4l-16.7,16.7c-21.2-21.2-21.2-55.6,0-76.7,10.2-10.2,23.9-15.9,38.4-15.9s28.1,5.6,38.4,15.9c21.2,21.2,21.2,55.6,0,76.7Z"/>
  <path class="cls-1" d="M658.7,651.9c-13.9,0-27.8-5.3-38.4-15.9l16.7-16.7c12,12,31.4,12,43.4,0,12-12,12-31.4,0-43.4-12-12-31.4-12-43.4,0l-16.7-16.7c21.1-21.2,55.6-21.2,76.7,0,21.2,21.2,21.2,55.6,0,76.7-10.6,10.6-24.5,15.9-38.4,15.9Z"/>
  <path class="cls-1" d="M376.8,498.2c-22.7-22.7-59.7-22.7-82.5,0-22.7,22.7-22.7,59.7,0,82.5,11.4,11.4,26.3,17.1,41.2,17.1s29.9-5.7,41.2-17.1c22.7-22.7,22.7-59.7,0-82.5ZM360.2,564c-13.5,13.5-35.6,13.5-49.1,0-13.5-13.5-13.5-35.6,0-49.2,6.7-6.7,15.7-10.1,24.5-10.1s17.8,3.4,24.6,10.1c13.5,13.6,13.5,35.6,0,49.2Z"/>
</svg>