<svg width="46" height="46" viewBox="0 0 46 46" fill="none" xmlns="http://www.w3.org/2000/svg">
<rect width="46" height="46" rx="23" fill="#050E28"/>
<path fill-rule="evenodd" clip-rule="evenodd" d="M27.3333 15.3846C28.0697 15.3846 28.6667 16.0045 28.6667 16.7692V29.2308C28.6667 29.9955 28.0697 30.6154 27.3333 30.6154H22C21.2636 30.6154 20.6667 29.9955 20.6667 29.2308V25.7692C20.6667 25.3869 20.3682 25.0769 20 25.0769C19.6318 25.0769 19.3333 25.3869 19.3333 25.7692V29.2308C19.3333 30.7602 20.5272 32 22 32H27.3333C28.8061 32 30 30.7602 30 29.2308V16.7692C30 15.2398 28.8061 14 27.3333 14L22 14C20.5272 14 19.3333 15.2398 19.3333 16.7692V20.2308C19.3333 20.6131 19.6318 20.9231 20 20.9231C20.3682 20.9231 20.6667 20.6131 20.6667 20.2308V16.7692C20.6667 16.0045 21.2636 15.3846 22 15.3846L27.3333 15.3846ZM17.8047 19.7412C17.5444 19.4709 17.1223 19.4709 16.8619 19.7412L14.1953 22.5105C13.9349 22.7808 13.9349 23.2192 14.1953 23.4895L16.8619 26.2588C17.1223 26.5291 17.5444 26.5291 17.8047 26.2588C18.0651 25.9884 18.0651 25.5501 17.8047 25.2797L16.2761 23.6923L26 23.6923C26.3682 23.6923 26.6667 23.3824 26.6667 23C26.6667 22.6176 26.3682 22.3077 26 22.3077L16.2761 22.3077L17.8047 20.7203C18.0651 20.4499 18.0651 20.0116 17.8047 19.7412Z" fill="white"/>
</svg>
