<svg width="46" height="46" viewBox="0 0 46 46" fill="none" xmlns="http://www.w3.org/2000/svg">
<path d="M32.6937 42.1347C30.3975 42.1347 27.6006 39.7079 25.9053 38.2432C25.4833 37.8824 25.1256 37.564 24.9253 37.4296C24.861 37.38 24.4103 37.1182 22.3359 36.6371C20.9553 36.3187 19.4317 36.1348 17.6863 36.0852C13.0296 35.9437 8.64477 34.0687 5.34716 30.8069C1.80635 27.3046 -0.096383 22.6418 0.00376112 17.689C0.103905 12.7362 2.18547 8.15131 5.86934 4.77631C12.8651 -1.62698 23.7951 -1.58453 30.7408 4.87537C34.3317 8.21499 36.3775 12.7362 36.4991 17.597C36.5349 19.1678 36.728 20.6819 37.0642 22.1041C37.5435 24.1348 37.8082 24.5664 37.8582 24.6371C38.0013 24.8352 38.316 25.189 38.6808 25.6065C40.6408 27.8282 44.2961 31.9532 41.7424 34.3022C39.4176 36.4461 38.266 37.7338 38.2588 37.748L38.1801 37.8258C38.1658 37.8399 36.8639 38.972 34.6965 41.2715C34.1171 41.8871 33.4304 42.1347 32.6937 42.1347ZM18.2514 1.66311C14.2099 1.66311 10.1755 3.1065 7.021 5.99329C3.67333 9.05697 1.78489 13.2173 1.6919 17.7103C1.60607 22.2102 3.32282 26.4343 6.54174 29.6183C9.53176 32.5758 13.5089 34.281 17.7364 34.4083C19.5962 34.4649 21.22 34.6631 22.715 35.0027C24.9325 35.5192 25.5763 35.8376 25.8982 36.0569C26.17 36.248 26.542 36.5734 27.0141 36.9767C28.5663 38.3211 32.2001 41.4626 33.4662 40.1182C35.5048 37.9531 36.7853 36.8069 37.0285 36.5947C37.2502 36.3541 38.409 35.0876 40.5907 33.0711C41.9427 31.8187 38.7667 28.2244 37.4076 26.689C36.9927 26.222 36.6637 25.8541 36.4777 25.5852C36.2559 25.2739 35.934 24.6442 35.419 22.472C35.0542 20.9437 34.8539 19.3093 34.811 17.6253C34.7037 13.2103 32.851 9.11357 29.5892 6.0782C26.4203 3.12773 22.3359 1.65603 18.2514 1.65603V1.66311Z" fill="#050E28"/>
<path d="M45.7193 36.6726L43.6521 38.7174L37.3144 44.9863L36.8137 44.491L43.1514 38.2151L43.8094 37.5641L45.0541 36.333C45.3259 36.0641 45.3259 35.6255 45.0541 35.3566L44.0312 34.3448C43.7594 34.0759 43.3159 34.0759 43.0441 34.3448L41.1413 36.2269L34.7965 42.4957L32.8651 40.5854L32.207 41.2363L34.3029 43.3094C34.5747 43.5783 35.0182 43.5783 35.29 43.3094L41.7994 36.8778L43.5376 35.1585L44.2315 35.8448L42.4933 37.5641L35.991 44.0028C35.7192 44.2717 35.7192 44.7104 35.991 44.9792L36.8208 45.8C36.9496 45.9273 37.1284 45.9981 37.3144 45.9981C37.5004 45.9981 37.672 45.9273 37.8079 45.7929L39.446 44.1726L40.5405 43.0901L43.1728 40.4863L44.2672 39.4038L45.7265 37.9604C46.0913 37.5995 46.0913 37.0193 45.7265 36.6585L45.7193 36.6726Z" fill="#050E28"/>
<path d="M40.7041 44.2081C41.0689 44.569 41.6555 44.569 42.0203 44.2081L42.4423 43.7907L44.6026 41.6539C44.9674 41.293 44.9674 40.7129 44.6026 40.352L40.7113 44.2011L40.7041 44.2081Z" fill="#050E28"/>
<path d="M31.5995 32.6255L29.7397 30.7859L25.4407 31.7128L25.083 30.0854L30.2833 28.9675L32.7941 31.4439L31.5995 32.6255Z" fill="#050E28"/>
<path d="M17.6146 22.202L16.4209 23.3828L34.0026 40.7736L35.1963 39.5928L17.6146 22.202Z" fill="#050E28"/>
<path d="M26.4345 31.4232L24.7821 31.0694L25.7191 26.81L21.7134 22.8477L22.908 21.6661L27.5647 26.2722L26.4345 31.4232Z" fill="#050E28"/>
<path d="M27.2003 22.8471L26.0057 21.6655C26.8641 20.8165 26.8641 19.4439 26.0057 18.5948C25.1474 17.7457 23.7596 17.7457 22.9013 18.5948C22.0429 19.4439 22.0429 20.8165 22.9013 21.6655L21.7067 22.8471C20.1902 21.3471 20.1902 18.9132 21.7067 17.4203C22.4363 16.6986 23.4163 16.2953 24.4535 16.2953C25.4907 16.2953 26.4635 16.6915 27.2003 17.4203C28.7168 18.9203 28.7168 21.3542 27.2003 22.8471Z" fill="#050E28"/>
<path d="M34.3464 33.7503C33.3521 33.7503 32.3578 33.3753 31.5996 32.6253L32.7942 31.4437C33.6526 32.2927 35.0403 32.2927 35.8987 31.4437C36.757 30.5946 36.757 29.222 35.8987 28.3729C35.0403 27.5239 33.6526 27.5239 32.7942 28.3729L31.5996 27.1913C33.1089 25.6913 35.5768 25.6913 37.0861 27.1913C38.6025 28.6913 38.6025 31.1253 37.0861 32.6182C36.3278 33.3682 35.3336 33.7432 34.3393 33.7432L34.3464 33.7503Z" fill="#050E28"/>
<path d="M14.1812 22.876C12.5574 21.2699 9.91075 21.2699 8.27984 22.876C6.65607 24.4822 6.65607 27.1001 8.27984 28.7133C9.09529 29.5199 10.1611 29.9232 11.2269 29.9232C12.2928 29.9232 13.3657 29.5199 14.174 28.7133C15.7978 27.1072 15.7978 24.4892 14.174 22.876H14.1812ZM12.9938 27.5317C12.0281 28.4869 10.4472 28.4869 9.48157 27.5317C8.51589 26.5765 8.51589 25.0128 9.48157 24.0506C9.96083 23.5765 10.6046 23.3359 11.2341 23.3359C11.8636 23.3359 12.5073 23.5765 12.9938 24.0506C13.9594 25.0128 13.9594 26.5694 12.9938 27.5317Z" fill="#050E28"/>
</svg>
