<svg width="28" height="28" viewBox="0 0 28 28" fill="none" xmlns="http://www.w3.org/2000/svg">
<path d="M11.2402 5.04102L18.6934 6.35937C19.4844 6.5 20.1436 6.71973 20.6885 7.01855L20.6797 6.43848C20.6445 4.53125 19.3174 3.61719 17.1465 4.00391L11.2402 5.04102ZM8.56836 22.0654L18.2627 23.7705C20.0996 24.0957 21.2334 23.0498 21.2334 21.0459V10.4375C21.2334 8.60058 20.3369 7.88867 18.4736 7.56348L9.07813 5.90234C7.69824 5.66504 6.75781 6.44726 6.75781 7.81836V19.9648C6.75781 21.1426 7.38184 21.8545 8.56836 22.0654ZM10.3174 11.1494C9.97461 11.0967 9.78125 10.833 9.78125 10.4814C9.78125 10.0596 10.1152 9.77832 10.5811 9.85742L17.3398 11.0439C17.7002 11.1143 17.8936 11.3252 17.8936 11.7119C17.8936 12.1338 17.5859 12.4238 17.1201 12.3535L10.3174 11.1494ZM10.3174 14.7529C9.9834 14.6914 9.78125 14.4365 9.78125 14.085C9.78125 13.6719 10.1152 13.3906 10.5811 13.4697L17.3398 14.6562C17.7002 14.7266 17.8936 14.9375 17.8936 15.3066C17.8936 15.7461 17.5859 16.0361 17.1201 15.9658L10.3174 14.7529Z" fill="#050E28"/>
</svg>
